<svg xmlns="http://www.w3.org/2000/svg" width="24" height="24" fill="none"><path fill="#67D9B7" d="M10 14a1.49 1.49 0 0 0-1 2.61V18a1 1 0 1 0 2 0v-1.39A1.49 1.49 0 0 0 10 14Zm5-4V8A5 5 0 0 0 5 8v2a3 3 0 0 0-3 3v7a3 3 0 0 0 3 3h10a3 3 0 0 0 3-3v-7a3 3 0 0 0-3-3ZM7 8a3 3 0 1 1 6 0v2H7V8Zm9 12a1 1 0 0 1-1 1H5a1 1 0 0 1-1-1v-7a1 1 0 0 1 1-1h10a1 1 0 0 1 1 1v7Z"/><path fill="#67D9B7" d="M17.828 21H19a3 3 0 0 0 3-3v-7a3 3 0 0 0-3-3V6a5 5 0 0 0-9-3 5 5 0 0 1 2.273.547A3 3 0 0 1 17 6v2h-2v2h4a1 1 0 0 1 1 1v7a1 1 0 0 1-1 1h-1v1a3 3 0 0 1-.172 1Z"/></svg>